<svg xmlns="http://www.w3.org/2000/svg" viewBox="0 0 1854.7 1633.1"><defs><style>.cls-1{fill:#fffdc3;}</style></defs><g id="Layer_2" data-name="Layer 2"><g id="Layer_1-2" data-name="Layer 1"><path class="cls-1" d="M787.57,202.17l-2.25,19.36-2.7,20.26-6.76,17.56-6.75,14.86-9.91,13.06-10.8,10.8-26.57,18-15.31,6.76-15.31,5.85-17.1,4.5-32.43,5.86-202.61,1.8V326l13.06-.9,9-3.15q4.5-7.2,5.41-10.36a33.26,33.26,0,0,0,.89-5.4q.45-4.05,1.36-10.81L468.34,81.5l-3.16-8.11-5.4-6.75-6.3-1.8q-4.51-2.25-14-3.15l-21.16-1.35.9.9,12.6-12.16,19.82-17.56,18-10.36,19.36-9L509.76,6.3l13.51-3.15,18.46-1.8Q555.68,0,566,0l43.68,4.5,26.11,7.66,15.76,4.95,38.72,18,35.13,24.31L749.3,83.3l11.25,16.21,9.91,17.11,6.75,17.56,5,18.46,3.6,24.31a4,4,0,0,0,.45,1.81l1.35,7.2Zm-92.75,5.4-1.35-18.46-5.41-27.92-5.85-26.11-5-14a63.61,63.61,0,0,0-4.06-9l-9.45-20.27L650.69,74.74q-9.45-12.6-13.06-16.2L622.32,46.83,607,36l-16.21-5.85-18-5.85L555.69,23l-12.16-.45h-5.85l-18,3.61-18,5.4L485,40.07l-16.2,10.81,35.12-6.75h34.67l16.66,2.7,18.46,4.5q-10.37,9.45-13.06,13.06-3.15,4.5-5.4,17.11V326l32-4.05,30.62-7.66L639,304.83l21.17-12.61,12.6-13.51,10.36-14.86,7.2-18,4.06-18V217Z"/><path class="cls-1" d="M1071.23,257.1l-5.86,22.06-6.75,13.51-9.46,17.56-11.25,16.66-38.72,33.32L987.93,371q-1.8,1.35-5.86,7.2a18.18,18.18,0,0,0-3.6,5.85l-6.3,13.51-1.35,16.21q-.45,1.8.9,9.91l1.8,10.35-13.06-16.21L951,401.18l-1.35-10.8-.45-9V368.32l4.95-16.67,7.2-15.76,8.11-16.65,9.45-16.66,16.66-33.77,5-16.21,3.15-17.56-2.7-18-5.41-15.31Q983.87,185.51,965,168l-54.49,18V295.82l1.36,12.61,2.25,8.1a36.17,36.17,0,0,0,9.9,7.66l7.66,1.35h8.1l-.45,15.31H804.22V326h9.46l12.15-4.05,5-9.91,2.7-16.66-.9-120.67-2.7-9.45a24.88,24.88,0,0,0-9.46-7.66l-15.76-.45,17.11-10.81,17.56-9.45,18.91-6.3,21.17-6.76L910.93,118l-.45,47.73,90.06-47.28,20.26,9.9,15.76,9.46,12.6,14,9.46,13.06,7.2,16.21,5,14,3.6,34.22Z"/><path class="cls-1" d="M1460.7,202.17l-2.25,19.36-2.7,20.26L1449,259.35l-6.75,14.86-9.9,13.06-10.81,10.8-26.57,18-15.31,6.76-15.31,5.85-17.1,4.5-32.42,5.86-202.62,1.8V326l13.06-.9,9-3.15q4.5-7.2,5.41-10.36a34.08,34.08,0,0,0,.9-5.4q.43-4.05,1.35-10.81l-.45-213.87-3.16-8.11-5.4-6.75-6.3-1.8q-4.52-2.25-14-3.15l-21.16-1.35.9.9L1105,49.08l19.82-17.56,18-10.36,19.36-9,20.71-5.86,13.51-3.15,18.46-1.8q14-1.35,24.31-1.35l43.68,4.5L1309,12.16l15.76,4.95,38.73,18,35.12,24.31,23.86,23.87,11.25,16.21,9.91,17.11,6.76,17.56,5,18.46,3.6,24.31a4,4,0,0,0,.45,1.81l1.35,7.2Zm-92.75,5.4-1.35-18.46-5.41-27.92-5.85-26.11-4.95-14a63.61,63.61,0,0,0-4.06-9l-9.45-20.27-13.06-17.11q-9.45-12.6-13.06-16.2l-15.31-11.71L1280.15,36l-16.21-5.85-18-5.85L1228.82,23l-12.16-.45h-5.85l-18,3.61-18,5.4-16.65,8.55-16.21,10.81L1177,44.13h34.67l16.66,2.7,18.46,4.5q-10.36,9.45-13.06,13.06-3.15,4.5-5.4,17.11V326l32-4.05,30.61-7.66,21.17-9.45,21.16-12.61,12.6-13.51,10.36-14.86,7.21-18,4-18V217Z"/><path class="cls-1" d="M213.75,1542.93H125.1V1532h5.8l7.46-3,2.76-7.6,1.66-12.55-.28-84.22H71.25v85.21l.83,9.25,1.38,5.95a23.3,23.3,0,0,0,6.08,5.61l4.69,1h5l-.28,11.23H0V1532l7.46-.33,2.76-1.32a30.75,30.75,0,0,1,3.31-1.32l2.76-7.27L18,1509.57l-.28-160.85c0-.87,0-1.86-.13-3s-.24-2.2-.42-3.3l-1.65-10.57-6.36-8.59-8-4.29,8.84-6.28,10.22-6.27,21.54-8.26,23.47-5L90,1289.93l-13,16.85L71.53,1319l-.28,74H142.5v-44.26c-.37-3.52-.74-6.32-1.1-8.42a23.48,23.48,0,0,0-1.11-4.46l-4.14-8.92L125.38,1319l18.5-11.56,9.67-4.3,10.49-4.29,11.05-2.64,11.87-2.64,27.07-3.64-7.18,8.59-5.53,7.93-2.76,6.27-1.93,6.28,1.93,206.1a23.3,23.3,0,0,0,6.08,5.61,36.32,36.32,0,0,0,9.39,1Z"/><path class="cls-1" d="M371.44,1494.38l-6.08,9.91-8.28,9.25-9.39,8.58-10.5,7.27L326.7,1535l-11.05,4-11.87,3-7.73.33H283.62c-.93-.22-3.41-.88-7.46-2a22.61,22.61,0,0,1-3-1c-1.1-.44-2.12-.88-3-1.32l-10.5-5-9.39-7.92-8.28-9.91-6.35-12.88-6.36-14.87-3.86-19.15q-.82-4-.83-14.87l2.48-16.51,3-11.89,6.08-12.88,6.35-9.58,9.39-9.25,8.56-6.27,11.88-5.29,13-4.62,9.94-1,8.83-.33h4.42l10.5,2,12.15,3.63,10.77,6.28,9.39,6.27,7.18,8.92,7.73,11.56-4.42,6.61-6.35,7.26-6.63,6.94-9.11,8.26-19.06,14.2-23.19,14.53-24.58,11.89,4.42,6.61,6.07,5.61,6.91,3.3,9.39,2.65h19.05l12.7-3.31,11.6-5,13.26-8.26,13.53-8.92,8,5.29Zm-51.09-77-2.21-4-8.84-10.9-8.56-5.28-9.67-5h-5L282,1392l-11.6,2-4.14,4.3-3.31,5-2.77,8.26-1.93,8.58v22.46l3,12.56,3.86,12.55,20.44-7.6,8.84-5,8.84-6.28,6.07-5.94,5.52-6.28,3.6-6.28,2.48-6.27A33.05,33.05,0,0,0,320.35,1417.42Z"/><path class="cls-1" d="M526.09,1411.15a23,23,0,0,1-1.11,4.29L521.4,1424l-6.36,4.29-6.63,1.65-6.9-1.32-6.9-3.63-10.5-10.24q-2.48-2.64-10.49-6.28-9.12,0-20.16,5.62l-.28,95.78.83,9.25,1.38,5.95,2.49,3.63,3.31,2,9.94,1-.27,11.23H388V1532h5.8l7.45-3,3-7.27,1.66-12.22-.55-88.51-1.66-6.94a15.06,15.06,0,0,0-6.08-5.62l-9.39-.33,10.5-7.92,10.77-6.94,11-4.62,13.26-5,19.61-4.29-.28,20.48,11.88-8.26,12.42-7.6,9.12-3,10.77-3,14.08,1.65,6.08,4.29,4.42,5,2.21,5.28,3,9.25C526.82,1406.64,526.46,1409.17,526.09,1411.15Z"/><path class="cls-1" d="M680.74,1469.28l-1.93,11.89-5,14.2-5,11.23-6.62,9.25-7.74,8.59-9.94,6.93-13.81,6.94-12.42,3L604,1542.6l-11.88-2q-4.43-.33-14.36-4.62l-11.32-6.94-7.74-6.94-8.56-11.56L546,1503.3l-3.87-10.9-3.31-11.23-1.38-11.89-.28-14.87,2.76-22.12,2.21-8.92,3.59-10.24,3.87-6.94,4.7-7.59,4.41-4,5.25-3.63-3.59,10.9L557,1414.12l-.28,13.21.55,8.92q.56,2.31,1.52,5.78c.64,2.31,1.43,5.23,2.35,8.75l3.59,8.92,5.52,9.91,8,9.58,7.46,6.6,9.11,6,11.6,4q2.76,1,11.32,1,9.39-1,12.43-2.31l2.21-.66a18.26,18.26,0,0,0,2.49-1l7.73-4,7.73-7.93,6.9-9.58,3.87-12.22,2.21-12.55c-.18-1.1-.37-2.59-.55-4.46s-.46-4.13-.83-6.77l-4.14-11.89-7.46-7.93q-.83-1.32-8.56-6.27l-17.95-2.32H611.7q-6.63,4-8.56,6.28l-5,5.94-.83,6,2.21,7.27,5.52,3.63,7.73,2.31-8.56,5.29-8,3h-3.59a14.73,14.73,0,0,1-2.07-.17,25.85,25.85,0,0,1-2.62-.49l-6.08-1.32-5.8-4.63-5.25-5.94-3.31-8.59L565,1416.1v-6.27q0-2.31,3-11.56l5.8-7.6,8-7.27,8.56-4.62,15.19-6.61,15.19,2,9.67,2.31L644,1383.4l9.66,6.61L668,1408.17l5.52,13.55,4.69,11.89,1.38,10.57,1.38,12.88Z"/><path class="cls-1" d="M1017.93,1551.19c-1.48-1.11-2.9-2.21-4.28-3.3s-2.81-2.21-4.28-3.31a26,26,0,0,0-9.67-1.65h-148V1532l7.73-.33c.74-.44,1.56-.88,2.49-1.32a30.75,30.75,0,0,1,3.31-1.32l2.76-7.27,1.66-12.22-.28-183a12.11,12.11,0,0,0-.55-2.31l-1.1-5.94-6.08-5.62L852,1311.4l-.28-10.24H940.6v10.57l-7.18.33a9.8,9.8,0,0,0-5.8,2.31l-3,7.27-1.38,11.89-.56,198.5h6.08c1.47,0,2.85,0,4.14-.16a32.39,32.39,0,0,0,3.59-.5l15.19-3,12.43-3.3q4.14-1.32,7.59-2.65a51.41,51.41,0,0,0,6.49-3l10.77-6.27,10.22-6.94,9.39-9.58,7.18-9.58,4.42-9.25,4.42-13.87,6.35,7.6Z"/><path class="cls-1" d="M1187.77,1494.38l-6.08,9.91-8.28,9.25-9.39,8.58-10.49,7.27L1143,1535l-11,4-11.88,3-7.73.33H1100q-1.38-.33-7.46-2a22.06,22.06,0,0,1-3-1c-1.11-.44-2.12-.88-3-1.32l-10.5-5-9.39-7.92-8.28-9.91-6.35-12.88-6.35-14.87-3.87-19.15q-.83-4-.83-14.87l2.49-16.51,3-11.89,6.08-12.88,6.35-9.58,9.39-9.25,8.56-6.27,11.88-5.29,13-4.62,9.94-1,8.84-.33h4.41l10.5,2,12.15,3.63,10.77,6.28,9.39,6.27,7.18,8.92,7.73,11.56-4.42,6.61-6.35,7.26-6.63,6.94-9.11,8.26-19,14.2-23.2,14.53-24.58,11.89,4.42,6.61,6.07,5.61,6.91,3.3,9.39,2.65h19l12.71-3.31,11.59-5,13.26-8.26,13.53-8.92,8,5.29Zm-51.09-77-2.21-4-8.84-10.9-8.56-5.28-9.66-5h-5l-4.15-.33-11.6,2-4.14,4.3-3.31,5-2.76,8.26-1.94,8.58v22.46l3,12.56,3.87,12.55,20.43-7.6,8.84-5,8.84-6.28,6.07-5.94,5.53-6.28,3.59-6.28,2.48-6.27A33.05,33.05,0,0,0,1136.68,1417.42Z"/><path class="cls-1" d="M1321.16,1542.93q-9.67-4-11.6-5.94-3.32-3-7.46-12.22l-15.74,7.59-16,6.61-11.87,2.31-11,.66a63.08,63.08,0,0,1-10.22-1.65l-9.11-3-6.91-4.3-6.62-5.94-7.46-12.55-1.66-6.94-1.1-7.27.83-7.92c.18-1.32.41-3,.69-5.12a62.24,62.24,0,0,1,1.52-7.43l4.14-7.93,4.69-8.26,7.74-7.92,7.73-6.61,8.56-4.62,11.6-5.29,10.22-2.31,12.15-2.31,28.17.66-.28-20.81q-.55-4.62-1.1-7.6a23,23,0,0,0-1.11-4.29l-4.14-8.92-7.18-3.63-7.46-1.32-8,2-7.18,3.3-5.24,6-3.32,4.95-7.18,8.26-7.45,6.27-7.74,1-7.73-1-6.9-5.61-5.8-8.26-3.59-13.87-1.66-15.52,7.73,4.95,8.84,3,8.84-.33q2.76,0,8.56-2.31l9.11-3.3,12.15-3.63,21.82-1.66,11.32,1.66a42.71,42.71,0,0,1,11.88,2.31l9.39,4.29c.73.45,1.93,1.16,3.59,2.15s3.77,2.37,6.35,4.13l6.35,8.25,5.52,7.93,2.77,13.87a67.65,67.65,0,0,1,.82,11.56l-.27,80.92,1.38,10.57,3.31,9.91,6.08,7.27,7.45,4.95Zm-28.72-91.82-17.68,3-10.22,5.62-6.9,5.28-4.14,6.61-3.59,8.92v9.91l1.65,7.59,4.42,7.27,5.52,5.28,7.46,3.31,9.67,1.65,9.94-1.32,13.53-5,.28-58.13Z"/><path class="cls-1" d="M1514.19,1565.39l-3.31,9.91-9.11,9.25-10.22,7.59-14.64,4q-8,2.3-22.09,2.31l-9.94,4.29-7.46,6.94-3.87,10.9q-.83,3.63-.83,12.55l-29.27-19.49q3.32-11.23,5.8-14.86l6.63-7.27,10.22-4a46.21,46.21,0,0,1,5.8-.66q4.41-.33,11.6-1l14.36-1.32,10.49-3,6.35-4.62,1.66-5a14.75,14.75,0,0,0-3.32-5l-7.73-4.29-7.45-2.31-7.18-1-19.61-1.32-27.07.34q-9.11-1.67-11.32-2.32-3-1.32-9.66-5l-5.8-6.94-4.42-8.59-.56-8.91.56-8.92,4.69-9.25,5.8-7.27,9.94-5.28,11-3-6.9-6-6.91-9.58-3.59-11.23-3-13.54.28-12.88a50.81,50.81,0,0,1,1.93-12.88l5.8-13.87,6.91-11.56,12.42-9.58,13.26-7.27-3.87-13.54-1.93-12.55,1.38-11.23a32.88,32.88,0,0,1,1-4,59.22,59.22,0,0,1,2.07-5.62l5.8-5,7.73-4.62,11.05.33a34,34,0,0,1,12.15,2.31,47.81,47.81,0,0,1,5.8,6.93l3.87,7.6-.28,7.93-3,7.26-5.8,3.64-9.94,2.31-8-2q-1.38,0-7.46,2.64l-1.38,6q0,2.64,3,7.26l8.84-1.32a75.13,75.13,0,0,1,10.49-1l8.57,1.32,9.11,2.64,14.08,10.24,5.8,8.92,4.42,8.59,2.21,12.22,1.66,12.22-1.39,10.9-2.76,12.22-4.41,8.91-5.25,8.26-7.73,7.93-7.74,6.6-6.07,3-12.71,5.61-18.78,2-10.77-1.65-9.94-3-3.86,5.62-.28,5.94,3.87,5.61,6.62,3,23.48-2,28.44-1.66,12.71,2.32,12.7,5,6.63,6.61,6.35,8.91,3,9.25,1.93,11.23Zm-48.88-116.26-.28-9.91V1427l-3-11.56a40.61,40.61,0,0,0-4.42-12.88l-7.73-6.61-8.29-3q-5,1.66-8,3l-7.73,6.61-4.69,11.23-3.32,13.21v26.42l3.32,13.55,4.69,10.56,7.73,6.61,8.29,3.3c4.23-.87,6.9-1.76,8-2.64l8-7.27L1462,1465l3.31-11.56Z"/><path class="cls-1" d="M1690.66,1542.93h-65.17v-33l-39.22,33-13.53-1.65-13-3-7.18-3-10.77-6.93-6.91-7.6-5-7.92-2.76-8.92-1.38-9.58.83-8.92c.37-1.1.73-2.42,1.1-4s.74-3.19,1.11-5l5.52-9.57,6.35-8.59,11.33-19.49,3-8.59,2.49-8.58-.28-6.94-1.93-6.61-5-4.29-6.63-4.29,21-23.45,10.49,10.9,8,11.89,1.38,7.92.83,6.94v6.27l-3,12.56-3.58,10.24-8.29,21.79-2.21,9.58-.28,8.59,3.59,9.91,6.36,7.59,5.8,4.3,7.18,3h5.52l5.24-.33,4-.66a33.17,33.17,0,0,0,4.28-1l6.63-4.3a70.53,70.53,0,0,0,9.11-8.25l-.27-63.75a58.16,58.16,0,0,0-1.39-11.89q-.27-2-3-6.6l-5.8-1.65a20,20,0,0,0-7.18-1l10.49-7.92,10.77-6.94,24.3-10.24,19.61-5.61.28,141.69,1.66,5.95,2.48,3.63,3.31,2,10,1Z"/><path class="cls-1" d="M1848.35,1494.38l-6.08,9.91-8.28,9.25-9.39,8.58-10.5,7.27-10.49,5.61-11,4-11.87,3-7.74.33h-12.42c-.93-.22-3.41-.88-7.46-2a22.61,22.61,0,0,1-3-1c-1.1-.44-2.12-.88-3-1.32l-10.5-5-9.39-7.92-8.29-9.91-6.35-12.88-6.35-14.87-3.86-19.15q-.84-4-.83-14.87l2.48-16.51,3-11.89,6.08-12.88,6.35-9.58,9.39-9.25,8.56-6.27,11.87-5.29,13-4.62,10-1,8.83-.33h4.42l10.5,2,12.15,3.63,10.77,6.28,9.39,6.27,7.18,8.92,7.73,11.56-4.42,6.61-6.35,7.26-6.63,6.94-9.11,8.26-19.06,14.2-23.2,14.53-24.57,11.89,4.41,6.61,6.08,5.61,6.9,3.3,9.39,2.65h19.06l12.7-3.31,11.6-5,13.26-8.26,13.53-8.92,8,5.29Zm-51.09-77-2.21-4-8.84-10.9-8.56-5.28-9.67-5h-5l-4.14-.33-11.6,2-4.14,4.3-3.32,5-2.76,8.26-1.93,8.58v22.46l3,12.56,3.86,12.55,20.44-7.6,8.84-5,8.83-6.28,6.08-5.94,5.52-6.28,3.59-6.28,2.49-6.27A33.81,33.81,0,0,0,1797.26,1417.42Z"/><path class="cls-1" d="M1271.26,562.82S1325.59,441.48,1354.1,434c0,0-218.51,65.52-259.22,122.39,0,0,15.25-82,36.71-95.17,0,0-156.94,56.11-197.66,113,0,0,29.83-75.58,38.05-82.4,7.42-6.15-130.09,60.71-169.87,113.48,14.65-26,42.56-74.36,50.36-79.15,0,0-149.5,84.62-234.54,182.86-67.29,77.73-99.48,236.21-110,299-78.51,78-137.15,247-137.15,247s137.28-114.71,256.3-112.65c0,0-16.32,20.6-19.65,116.71,0,0,137.34-136.81,194.5-140.75,0,0-37.93,75.82-23.6,117.56,0,0,122.46-172.59,167.29-167.14,0,0-13.06,63.3-14.16,119.19-.21,10.68,82.08-158,156.66-185.86,0,0-32.75,96-42.18,104.37,0,0,132.72-109.07,199.59-220.46C1289.2,813.29,1304,710.18,1309,647.34q12.62-4.64,26.14-10.29c101.23-42.41,222.33-133.43,222.33-133.43S1361,495.36,1271.26,562.82ZM536.54,984.58A155.15,155.15,0,0,0,519.94,997c17.56-38.14,49.4-100,94.78-159.62,6.24-3.59,14.15-7.8,23.39-12.05a139.43,139.43,0,0,0,1.09,50.92c5.35,25.53,17.74,48.73,36.26,68.67C632.17,942.93,590.72,949.89,536.54,984.58Zm394.58-34.34-22.37,3.35a576.93,576.93,0,0,1-64.68,4.95c6.77-26,7.28-59.53,4.55-44.49-2.46,13.53-23.24,31.62-39.63,44-20.9-.91-39.88-2.87-57.61-5,20.57-41.92,45.61-93,45.36-92.6-23.69,37.95-64.22,66.86-92.78,83.9-23.83-20.06-39.4-44.67-45.18-72.28a121.48,121.48,0,0,1,1.7-56c28.7-10.43,65-18.4,103.89-14,61.58,7-23.07-16.19-88-24.18a199.47,199.47,0,0,1,19.7-28,378.47,378.47,0,0,1,66.17-45.8c17.9,16.91,59.74,36,59.74,36s-19.41-17.88-9.93-44.11A69.86,69.86,0,0,1,820,680.32a262.4,262.4,0,0,1,59.41-10h.16l-2.37,151.34L952.6,946.29Q941.59,948.5,931.12,950.24Zm248.79-137.61c-8.3,9.22-17,18.29-26.15,27.1-29.74-.31-70.28-2.53-85.19-11.72,0,0,30.09,22.89,57.91,36.1a421.72,421.72,0,0,1-44.76,32.35c-19.82-15.44-53.8-30.93-53.8-30.93s19.41,17.89,9.93,44.12a70.88,70.88,0,0,1-6.33,13.15A341,341,0,0,1,972.86,942c-4.06.93-8.06,1.8-12,2.64L961,780.92,892.5,669.66c41.66-1.85,77.65-2,109.5-1.39-10.42,37.26-10.8,85.79-6.68,64.17,3.68-19.26,35.76-44.75,61.33-62.34,18.88.85,36.28,1.8,52.71,2.54q5.46,3.2,10.54,6.63c-15.12,17.13-28.32,32.12-28,31.92,14.84-9.11,28.32-16.59,40.46-22.74,25.3,20.43,41.79,45.82,47.78,74.42q.83,3.95,1.36,7.91c-25,6.82-54.4,13.14-71.94,11-23.86-2.91,32.31,9.79,72.72,14.14A125.76,125.76,0,0,1,1179.91,812.63Zm43.75-54.85c-4.13,1.42-12.37,4.19-22.78,7.38-.35-2.14-.72-4.27-1.16-6.39-6.38-30.41-22.73-57.52-47.55-79.76,4.18-1.86,8.17-3.54,11.93-5.06,39.23-.37,76.05-4.6,120-18.18A743.91,743.91,0,0,1,1223.66,757.78Z"/></g></g></svg>